<svg width="80" height="52" viewBox="0 0 80 52" fill="none" xmlns="http://www.w3.org/2000/svg">
<path d="M6.32458 5.7644H68.1956L79.1727 8.25187V8.74937L68.1956 10.7393H6.32458V5.7644Z" fill="#B9BCC7"/>
<rect x="5.32654" y="5.7644" width="20.9563" height="4.97494" fill="#A68F8F"/>
<ellipse cx="4.82756" cy="8.25186" rx="4.49064" ry="4.47744" fill="#FEFFD3"/>
<path d="M28.2787 0.78949L26.7818 3.27696L27.2808 8.2519L26.7818 13.2268L28.2787 15.7143H25.2849L23.2891 13.2268V3.27696L25.2849 0.78949L28.2787 0.78949Z" fill="#FEFFD3"/>
<path d="M73.1851 23.6742H11.3141L0.336945 26.1617V26.6592L11.3141 28.6491H73.1851V23.6742Z" fill="#B9BCC7"/>
<rect width="20.9563" height="4.97494" transform="matrix(-1 0 0 1 74.1831 23.6742)" fill="#A68F8F"/>
<ellipse rx="4.49064" ry="4.47744" transform="matrix(-1 0 0 1 74.6821 26.1616)" fill="#FEFFD3"/>
<path d="M51.2308 18.6992L52.7277 21.1867L52.2288 26.1616L52.7277 31.1366L51.2308 33.624H54.2246L56.2204 31.1366V21.1867L54.2246 18.6992H51.2308Z" fill="#FEFFD3"/>
<path d="M6.32458 41.584H68.1956L79.1727 44.0715V44.5689L68.1956 46.5589H6.32458V41.584Z" fill="#B9BCC7"/>
<rect x="5.32654" y="41.584" width="20.9563" height="4.97494" fill="#A68F8F"/>
<ellipse cx="4.82756" cy="44.0714" rx="4.49064" ry="4.47744" fill="#FEFFD3"/>
<path d="M28.2787 36.609L26.7818 39.0965L27.2808 44.0714L26.7818 49.0464L28.2787 51.5338H25.2849L23.2891 49.0464V39.0965L25.2849 36.609H28.2787Z" fill="#FEFFD3"/>
</svg>
